<?xml version="1.0" standalone="no"?>
<!DOCTYPE svg PUBLIC "-//W3C//DTD SVG 20010904//EN"
 "http://www.w3.org/TR/2001/REC-SVG-20010904/DTD/svg10.dtd">
<svg version="1.0" xmlns="http://www.w3.org/2000/svg"
 width="1300.000000pt" height="1300.000000pt" viewBox="0 0 1300.000000 1300.000000"
 preserveAspectRatio="xMidYMid meet">

<g transform="translate(0.000000,1300.000000) scale(0.100000,-0.100000)"
fill="#000000" stroke="none">
<path d="M5444 11139 c-81 -23 -173 -117 -174 -177 0 -30 32 -91 64 -121 14
-14 26 -28 26 -31 0 -4 -127 -8 -282 -9 -582 -3 -892 -54 -1171 -192 -188 -93
-331 -208 -540 -434 -129 -140 -233 -284 -224 -309 4 -9 1 -15 -4 -13 -6 1
-20 -23 -32 -53 -27 -73 -28 -211 -3 -295 40 -131 173 -362 283 -492 57 -67
58 -66 -22 -78 -81 -13 -343 -85 -470 -128 -196 -67 -259 -93 -390 -157 -158
-77 -247 -150 -295 -244 -32 -63 -35 -76 -35 -155 0 -67 5 -96 22 -133 47
-103 163 -186 293 -210 33 -7 60 -15 60 -20 0 -5 -8 -25 -19 -46 -80 -158
-133 -413 -157 -764 l-6 -98 83 6 c119 7 250 24 309 39 47 12 50 12 46 -3 -49
-160 -46 -235 11 -261 25 -12 69 -6 92 13 11 9 12 5 7 -19 -27 -129 -29 -441
-2 -432 6 2 10 11 10 20 -1 9 3 14 8 11 5 -3 20 4 33 16 l23 21 -5 -84 c-5
-80 4 -167 28 -250 l10 -37 56 40 c31 22 60 40 64 40 4 0 11 -21 15 -47 15
-104 64 -156 149 -159 42 -2 52 -6 65 -27 13 -24 12 -28 -18 -71 -60 -84 -112
-233 -112 -323 0 -25 1 -25 56 -18 31 4 67 9 80 11 29 5 30 -3 5 -30 -30 -33
-80 -131 -107 -213 -24 -70 -61 -309 -50 -320 3 -3 51 25 108 62 57 37 114 75
127 84 l24 15 -7 -74 c-8 -95 8 -223 40 -314 13 -39 51 -120 84 -180 l60 -110
1 -156 c0 -206 5 -232 46 -243 26 -8 36 -19 52 -61 43 -107 82 -266 112 -461
14 -86 17 -399 5 -477 -7 -46 -9 -48 -38 -48 -108 0 -235 -78 -339 -208 -204
-255 -239 -496 -97 -657 42 -49 99 -76 171 -83 54 -5 60 -3 54 12 -6 15 -2 14
23 -4 17 -12 30 -25 30 -30 0 -5 19 -20 43 -32 34 -18 63 -23 153 -26 154 -6
206 10 270 81 26 29 49 47 51 40 11 -30 48 -64 99 -89 153 -75 340 3 422 177
47 101 57 158 56 314 -1 116 -6 159 -29 250 -29 119 -72 231 -118 309 l-28 49
7 134 7 133 66 0 c138 0 327 -28 609 -90 62 -14 59 0 37 -218 l-15 -147 -43
-35 c-199 -162 -250 -282 -251 -585 -1 -198 11 -249 72 -307 75 -73 160 -92
272 -64 l64 17 23 -26 c35 -37 79 -57 143 -62 102 -10 232 36 286 100 l24 29
30 -25 c49 -42 110 -60 187 -55 154 9 265 118 309 303 29 125 1 414 -46 470
-7 8 -10 15 -6 15 3 0 -7 26 -23 58 -39 77 -112 157 -178 194 l-53 30 6 124
c5 88 4 127 -5 137 -10 12 -5 12 31 2 24 -7 86 -25 138 -40 166 -47 413 -178
523 -279 35 -32 37 -37 37 -94 0 -145 52 -303 112 -340 83 -51 168 -16 231 97
l25 43 37 -70 c77 -147 201 -250 361 -302 111 -36 118 -36 111 -10 -7 25 -7
26 63 -10 104 -52 201 -74 330 -75 83 0 129 5 166 17 45 16 55 16 99 2 27 -8
79 -17 116 -20 l67 -7 15 50 c57 190 216 341 413 390 38 10 70 18 71 18 1 1
19 63 39 138 20 76 39 136 41 134 2 -2 -4 -55 -12 -116 -9 -62 -15 -117 -13
-122 9 -26 220 353 250 448 13 40 27 73 32 73 20 0 164 -97 215 -145 149 -140
223 -311 222 -517 -1 -154 -15 -199 -152 -472 -50 -98 -89 -180 -87 -181 2 -2
49 35 104 83 55 48 124 107 154 132 l53 45 -7 -30 c-14 -60 -105 -232 -163
-310 -34 -44 -106 -134 -161 -200 -55 -66 -98 -122 -96 -124 2 -2 62 29 134
69 73 39 134 69 137 66 11 -10 -98 -106 -190 -166 l-98 -65 53 -7 c182 -22
373 1 509 61 123 54 192 102 296 208 51 51 97 93 102 93 19 0 126 107 161 161
l37 57 17 -92 c37 -196 59 -287 66 -274 4 7 20 87 36 177 l29 164 28 -63 c34
-75 31 -77 82 76 20 60 40 115 45 123 6 11 20 3 59 -34 l52 -48 30 34 c43 50
83 108 109 158 19 39 24 43 34 29 15 -20 20 -12 77 102 52 106 82 232 83 355
1 139 -12 195 -91 385 -8 17 -6 16 70 -44 26 -21 47 -36 47 -33 0 27 -143 307
-200 392 -78 116 -253 277 -282 259 -6 -4 -8 -3 -4 4 9 14 -100 75 -200 111
l-78 29 49 25 c28 13 83 34 124 45 40 12 76 23 78 26 7 6 -147 83 -227 113
-94 36 -233 63 -325 63 l-80 0 69 45 c79 51 84 44 -66 89 -116 35 -194 46
-333 46 -134 0 -218 -11 -319 -41 -37 -11 -70 -18 -72 -16 -3 2 -11 44 -19 93
-8 49 -23 116 -34 150 l-18 61 28 59 c96 198 29 443 -163 594 -28 23 -66 66
-84 96 -44 74 -75 109 -148 172 -57 49 -221 142 -251 142 -33 0 -21 20 30 51
30 18 55 36 55 40 0 14 -138 109 -221 153 -93 49 -206 87 -316 106 l-72 13 62
57 c54 50 60 59 48 74 -22 26 -271 143 -341 160 -36 9 -118 21 -183 28 -76 7
-116 15 -113 22 21 53 35 49 -155 43 -125 -3 -203 -11 -277 -27 -57 -12 -106
-19 -109 -17 -2 3 0 22 6 44 14 51 14 73 -2 73 -18 0 -241 -74 -301 -100 -49
-20 -59 -46 -17 -44 14 1 19 -2 13 -8 -9 -9 53 -83 70 -83 4 0 8 -3 9 -7 0
-11 61 -73 70 -73 5 0 9 -3 10 -7 0 -11 61 -73 70 -73 5 0 9 -3 10 -7 0 -11
61 -73 70 -73 5 0 9 -3 10 -7 0 -11 61 -73 70 -73 5 0 9 -3 10 -7 0 -11 61
-73 70 -73 5 0 9 -3 10 -7 0 -11 61 -73 70 -73 5 0 9 -3 10 -7 1 -18 55 -65
65 -57 6 5 10 0 10 -16 0 -18 -3 -21 -12 -14 -8 7 -14 6 -19 -1 -5 -8 -11 -8
-21 1 -7 6 -11 15 -8 20 7 12 -26 60 -37 53 -5 -3 -9 -2 -8 3 4 21 -2 25 -14
8 -13 -17 -14 -17 -12 5 1 23 -32 68 -47 63 -5 -2 -7 0 -7 5 4 21 -2 24 -14 7
-13 -17 -14 -17 -12 5 1 23 -32 68 -47 63 -5 -2 -7 0 -7 5 4 21 -2 24 -14 7
-13 -17 -14 -17 -12 5 1 23 -32 68 -47 63 -5 -2 -7 0 -7 5 4 21 -2 24 -14 7
-13 -17 -14 -17 -12 5 1 23 -32 68 -47 63 -5 -2 -7 0 -7 5 4 21 -2 24 -14 7
-13 -17 -14 -17 -12 5 1 23 -32 68 -47 63 -5 -2 -7 0 -7 5 4 21 -2 24 -14 7
-13 -17 -14 -17 -12 5 1 23 -32 68 -47 63 -5 -2 -7 0 -7 5 4 21 -2 24 -14 7
-13 -17 -14 -17 -12 5 2 27 -33 72 -48 63 -6 -3 -7 -1 -3 5 4 7 -3 16 -17 23
-13 6 -24 17 -24 24 0 8 4 12 7 10 7 -4 33 34 92 135 17 29 22 32 32 19 6 -9
30 -19 53 -22 l43 -7 11 47 12 46 19 -22 18 -23 30 67 c40 90 60 170 60 246
l0 63 45 -44 c24 -24 46 -42 49 -39 2 2 9 34 15 70 15 91 14 242 -4 314 -8 33
-14 64 -15 68 0 4 24 -10 53 -31 70 -52 208 -125 217 -115 32 36 100 262 120
399 80 557 -251 960 -882 1074 -61 11 -113 20 -116 20 -2 0 18 17 45 38 209
166 347 411 405 722 18 94 22 153 23 325 0 116 -4 245 -8 288 l-9 78 -111 83
c-131 96 -346 241 -467 313 -210 125 -264 155 -407 227 -84 42 -155 76 -158
76 -4 0 -3 -5 1 -12 5 -7 3 -8 -5 -4 -7 5 -10 10 -7 13 3 3 -9 14 -27 23 -59
32 -301 133 -394 164 l-93 32 33 12 c51 19 104 74 117 122 18 67 -19 152 -98
225 -29 27 -78 32 -138 14z m46 -34 c13 -14 21 -25 18 -25 -2 0 -15 11 -28 25
-13 14 -21 25 -18 25 2 0 15 -11 28 -25z m110 -112 l75 -78 -77 75 c-43 41
-78 76 -78 77 0 8 11 -3 80 -74z m510 -508 c13 -14 21 -25 18 -25 -2 0 -15 11
-28 25 -13 14 -21 25 -18 25 2 0 15 -11 28 -25z m415 -378 c20 18 20 18 2 -2
-17 -19 -10 -27 280 -320 l298 -300 -300 298 -300 297 -53 -50 -52 -50 50 52
50 53 -167 170 -168 170 170 -168 c166 -163 171 -167 190 -150z m75 70 c0 -2
-12 -14 -27 -28 l-28 -24 24 28 c23 25 31 32 31 24z m-220 -220 c0 -2 -15 -16
-32 -33 l-33 -29 29 33 c28 30 36 37 36 29z m-80 -80 c0 -2 -15 -16 -32 -33
l-33 -29 29 33 c28 30 36 37 36 29z m-3089 -84 c13 -16 12 -17 -3 -4 -10 7
-18 15 -18 17 0 8 8 3 21 -13z m3009 4 c0 -2 -15 -16 -32 -33 l-33 -29 29 33
c28 30 36 37 36 29z m-2645 -367 c170 -170 308 -310 305 -310 -3 0 -145 140
-315 310 -170 171 -308 310 -305 310 3 0 145 -139 315 -310z m2565 287 c0 -2
-15 -16 -32 -33 l-33 -29 29 33 c28 30 36 37 36 29z m-90 -91 c0 -2 -8 -10
-17 -17 -16 -13 -17 -12 -4 4 13 16 21 21 21 13z m-80 -79 c0 -2 -10 -12 -22
-23 l-23 -19 19 23 c18 21 26 27 26 19z m-70 -70 c0 -2 -15 -16 -32 -33 l-33
-29 29 33 c28 30 36 37 36 29z m1260 -42 c13 -14 21 -25 18 -25 -2 0 -15 11
-28 25 -13 14 -21 25 -18 25 2 0 15 -11 28 -25z m-1340 -38 c0 -2 -15 -16 -32
-33 l-33 -29 29 33 c28 30 36 37 36 29z m-80 -80 c0 -2 -15 -16 -32 -33 l-33
-29 29 33 c28 30 36 37 36 29z m-80 -80 c0 -2 -15 -16 -32 -33 l-33 -29 29 33
c28 30 36 37 36 29z m-80 -80 c0 -2 -15 -16 -32 -33 l-33 -29 29 33 c28 30 36
37 36 29z m-80 -80 c0 -2 -12 -14 -27 -28 l-28 -24 24 28 c23 25 31 32 31 24z
m-493 -469 c-3 -7 -5 -2 -5 12 0 14 2 19 5 13 2 -7 2 -19 0 -25z m2336 -530
c64 -30 56 -169 -15 -259 -26 -32 -101 -62 -159 -63 -119 -2 -188 100 -127
187 42 59 121 113 197 133 60 16 72 16 104 2z m-3117 -177 c-3 -5 1 -11 9 -15
8 -3 15 -13 15 -21 0 -9 -4 -13 -10 -10 -6 4 -7 -1 -3 -11 5 -14 2 -16 -21
-10 -16 4 -25 3 -22 -2 3 -5 15 -12 26 -15 27 -7 48 38 30 66 -6 11 -10 21 -7
23 6 6 43 -29 50 -48 7 -20 -9 -35 -16 -16 -3 7 -6 -1 -6 -19 -1 -44 -30 -59
-70 -39 -16 9 -31 21 -33 28 -7 21 3 56 23 77 19 21 46 30 35 12z m-148 -38
c1 -16 3 -45 5 -66 2 -31 12 -48 60 -97 32 -33 62 -60 66 -60 15 0 28 24 35
61 6 35 23 55 81 95 35 24 88 37 82 20 -3 -6 -10 -10 -18 -8 -18 5 -60 -19
-53 -30 3 -5 15 -1 26 9 21 18 21 18 5 -12 -20 -38 -125 -141 -153 -149 -16
-5 -35 9 -87 61 -62 62 -67 70 -61 100 4 20 1 39 -6 47 -8 11 -9 20 0 35 14
27 14 26 18 -6z m-684 -56 c29 -25 43 -67 38 -110 -4 -33 -91 -124 -128 -133
-13 -3 -24 -9 -24 -14 0 -12 -74 -30 -124 -30 -55 0 -96 19 -120 54 -36 56 -4
113 86 154 35 16 85 45 112 65 59 46 117 51 160 14z m-807 -219 c-3 -8 -6 -5
-6 6 -1 11 2 17 5 13 3 -3 4 -12 1 -19z m1803 -8 c12 -12 17 -26 13 -37 -7
-21 -32 -43 -49 -43 -19 0 -44 29 -44 50 0 22 26 50 46 50 8 0 23 -9 34 -20z
m1314 7 c22 -16 18 -65 -6 -80 -28 -18 -68 7 -68 42 0 44 39 64 74 38z m-213
-54 c13 -16 12 -17 -3 -4 -10 7 -18 15 -18 17 0 8 8 3 21 -13z m416 -65 c-3
-8 -6 -5 -6 6 -1 11 2 17 5 13 3 -3 4 -12 1 -19z m1593 19 c0 -2 -17 -19 -37
-38 l-38 -34 34 38 c33 34 41 42 41 34z m-1929 -34 c13 -16 12 -17 -3 -4 -10
7 -18 15 -18 17 0 8 8 3 21 -13z m-1713 -47 c-2 0 -197 -192 -433 -426 l-430
-425 425 430 c234 237 429 428 433 426 5 -1 7 -4 5 -5z m3562 1 c0 -2 -17 -19
-37 -38 l-38 -34 34 38 c33 34 41 42 41 34z m-1769 -34 c13 -16 12 -17 -3 -4
-10 7 -18 15 -18 17 0 8 8 3 21 -13z m1689 -46 c0 -2 -12 -14 -27 -28 l-28
-24 24 28 c23 25 31 32 31 24z m-1548 -92 c9 -11 22 -20 27 -20 6 0 11 -3 12
-7 0 -11 61 -73 70 -73 5 0 9 -3 10 -7 0 -11 61 -73 70 -73 5 0 9 -3 10 -7 0
-11 61 -73 70 -73 5 0 9 -3 10 -7 0 -11 61 -73 70 -73 5 0 9 -3 10 -7 0 -11
61 -73 70 -73 5 0 9 -3 10 -7 0 -11 61 -73 70 -73 5 0 9 -3 10 -7 0 -11 61
-73 70 -73 5 0 9 -3 10 -7 0 -11 61 -73 70 -73 5 0 9 -3 9 -8 -1 -9 142 -152
153 -152 4 0 7 -3 8 -7 0 -11 61 -73 70 -73 5 0 9 -3 10 -7 0 -11 61 -73 70
-73 5 0 10 -4 12 -9 1 -5 19 -27 39 -49 35 -38 43 -72 12 -46 -8 6 -12 14 -10
16 6 7 -57 68 -66 65 -5 -1 -7 1 -7 6 4 21 -2 24 -14 7 -13 -17 -14 -17 -12 5
1 23 -32 68 -47 63 -5 -2 -7 0 -7 5 4 21 -2 24 -14 7 -13 -17 -14 -17 -12 5 1
23 -32 68 -47 63 -5 -2 -7 0 -7 5 4 21 -2 24 -14 7 -13 -17 -14 -17 -12 5 1
12 -12 37 -28 56 l-30 33 -36 -37 c-29 -29 -35 -40 -26 -52 9 -13 8 -13 -7 -1
-16 12 -22 9 -19 -11 0 -5 -4 -7 -10 -5 -6 1 -14 -4 -17 -12 -3 -9 0 -11 9 -6
8 5 11 4 6 -1 -5 -5 -12 -9 -15 -10 -4 0 -15 -4 -25 -9 -15 -6 -15 -10 -5 -24
12 -14 11 -15 -4 -2 -16 12 -22 9 -19 -11 0 -5 -4 -7 -10 -5 -6 1 -14 -4 -17
-12 -3 -9 0 -11 9 -6 8 5 11 4 6 -1 -5 -5 -12 -9 -15 -10 -4 0 -15 -4 -25 -9
-15 -6 -15 -10 -5 -24 12 -14 11 -15 -4 -2 -16 12 -22 9 -19 -11 0 -5 -4 -7
-10 -5 -6 1 -14 -4 -17 -12 -3 -9 0 -11 9 -6 8 5 11 4 6 -1 -5 -5 -12 -9 -15
-10 -4 0 -15 -4 -25 -9 -15 -6 -15 -10 -5 -24 12 -14 11 -15 -4 -2 -16 12 -22
9 -19 -11 0 -5 -4 -7 -10 -5 -6 1 -14 -4 -17 -12 -3 -9 0 -11 9 -6 8 5 11 4 6
-1 -5 -5 -12 -9 -15 -10 -4 0 -15 -4 -25 -9 -15 -6 -15 -10 -5 -24 12 -14 11
-15 -4 -2 -16 12 -22 9 -19 -11 0 -5 -4 -7 -10 -5 -6 1 -14 -4 -17 -12 -3 -9
0 -11 9 -6 8 5 11 4 6 -1 -5 -5 -12 -9 -15 -10 -4 0 -15 -4 -25 -9 -15 -6 -15
-10 -5 -24 12 -14 11 -15 -4 -2 -16 12 -22 9 -19 -11 0 -5 -4 -7 -10 -5 -6 1
-14 -4 -17 -12 -3 -9 0 -11 9 -6 8 5 11 4 6 -1 -5 -5 -12 -9 -15 -10 -4 0 -15
-4 -25 -9 -15 -6 -15 -10 -5 -24 12 -14 11 -15 -4 -2 -16 12 -22 9 -19 -11 0
-5 -4 -7 -10 -5 -6 1 -14 -4 -17 -12 -3 -9 0 -11 9 -6 8 5 11 4 6 -1 -5 -5
-12 -9 -15 -10 -4 0 -15 -4 -25 -9 -15 -6 -15 -10 -5 -24 12 -14 11 -15 -4 -2
-16 12 -22 9 -19 -11 0 -5 -4 -7 -10 -5 -6 1 -14 -4 -17 -12 -3 -9 0 -11 9 -6
8 5 11 4 6 -1 -5 -5 -12 -9 -15 -10 -4 0 -15 -4 -25 -9 -15 -6 -15 -10 -5 -24
12 -14 11 -15 -4 -2 -16 12 -22 9 -19 -11 0 -5 -4 -7 -10 -5 -6 1 -14 -4 -17
-12 -3 -9 0 -11 9 -6 8 5 11 4 6 -1 -5 -5 -12 -9 -15 -10 -4 0 -15 -4 -25 -9
-15 -6 -15 -10 -5 -24 12 -14 11 -15 -4 -2 -16 12 -22 9 -19 -12 0 -4 -4 -6
-10 -5 -6 2 -14 -3 -17 -11 -3 -9 0 -11 9 -6 8 5 12 6 9 2 -3 -3 -9 -6 -15 -7
-24 -5 -45 -22 -39 -32 4 -6 3 -8 -3 -5 -6 4 -16 0 -23 -8 -7 -8 -9 -15 -4
-15 4 0 -7 -11 -25 -24 -19 -14 -28 -27 -22 -31 6 -3 11 -12 10 -18 0 -9 -2
-8 -6 1 -2 6 -10 9 -16 5 -7 -4 -14 -8 -17 -8 -3 0 -17 -12 -31 -27 -20 -20
-24 -29 -15 -39 8 -10 6 -10 -6 0 -16 12 -22 9 -19 -12 0 -4 -4 -6 -10 -5 -6
2 -14 -3 -17 -11 -3 -9 0 -11 8 -6 9 5 11 4 6 -4 -4 -6 -11 -9 -15 -6 -5 2
-16 -4 -26 -15 -10 -11 -22 -17 -26 -14 -5 3 240 254 544 558 336 335 554 560
554 571 0 22 -27 56 -39 49 -5 -3 -8 -2 -7 3 4 21 -2 25 -14 8 -13 -17 -14
-17 -12 5 1 23 -32 68 -47 63 -5 -2 -7 0 -7 5 4 21 -2 24 -14 7 -13 -17 -14
-17 -12 5 1 23 -32 68 -47 63 -5 -2 -7 0 -7 5 4 21 -2 24 -14 7 -13 -17 -14
-17 -12 5 1 23 -32 68 -48 62 -4 -1 -6 1 -6 5 4 22 -2 25 -14 8 -13 -17 -14
-17 -12 5 1 23 -32 68 -48 62 -4 -1 -6 1 -6 5 4 22 -2 25 -14 8 -13 -17 -14
-17 -12 5 1 23 -32 68 -48 62 -4 -1 -6 1 -6 5 4 22 -2 25 -14 8 -13 -17 -14
-17 -12 5 1 23 -32 68 -47 63 -5 -2 -7 0 -7 5 4 21 -2 24 -14 7 -13 -17 -14
-17 -12 5 1 23 -32 68 -47 63 -5 -2 -7 0 -7 5 4 21 -2 24 -14 7 -13 -17 -14
-17 -12 5 1 23 -32 68 -47 63 -5 -2 -7 0 -7 5 4 21 -2 24 -14 7 -13 -17 -14
-16 -12 6 1 13 -1 26 -4 29 -3 3 -19 21 -36 40 l-30 35 35 -30 c19 -16 43 -39
52 -50z m1374 -85 c-26 -28 -44 -55 -41 -60 4 -6 1 -9 -7 -8 -7 2 -12 -5 -12
-15 2 -14 -1 -15 -11 -7 -10 8 -16 7 -23 -7 -6 -10 -13 -15 -17 -11 -5 5 143
158 154 158 2 0 -17 -23 -43 -50z m-2102 -43 c26 -19 16 -49 -24 -70 -43 -22
-146 -18 -185 7 -31 21 -33 54 -2 66 35 14 190 12 211 -3z m1976 -87 c0 -5 -9
-15 -19 -22 -16 -10 -18 -15 -8 -28 11 -13 10 -13 -5 -1 -16 12 -22 9 -19 -11
0 -5 -4 -7 -10 -5 -6 1 -14 -4 -17 -12 -3 -9 0 -11 9 -6 8 5 11 4 6 -1 -5 -5
-12 -9 -15 -10 -4 0 -15 -4 -25 -9 -15 -6 -15 -10 -5 -24 12 -14 11 -15 -4 -2
-16 12 -22 9 -19 -11 0 -5 -4 -7 -10 -5 -6 1 -14 -4 -17 -12 -3 -9 0 -11 9 -6
8 5 11 4 6 -1 -5 -5 -12 -9 -15 -10 -4 0 -15 -4 -25 -9 -15 -6 -15 -10 -5 -24
12 -14 11 -15 -4 -2 -16 12 -22 9 -19 -11 0 -5 -4 -7 -10 -5 -6 1 -14 -4 -17
-12 -3 -9 0 -11 9 -6 8 5 11 4 6 -1 -5 -5 -12 -9 -15 -10 -4 0 -15 -4 -25 -9
-15 -6 -15 -10 -5 -24 12 -14 11 -15 -4 -2 -16 12 -22 9 -19 -12 0 -4 -4 -6
-10 -5 -6 2 -14 -3 -17 -11 -3 -9 0 -11 9 -6 8 5 11 4 6 -1 -5 -5 -12 -9 -15
-10 -4 0 -15 -4 -25 -9 -15 -6 -15 -10 -5 -24 12 -14 11 -15 -4 -2 -16 12 -22
9 -19 -12 0 -4 -4 -6 -10 -5 -6 2 -14 -3 -17 -11 -3 -9 0 -11 9 -6 8 5 11 4 6
-1 -5 -5 -12 -9 -15 -10 -4 0 -15 -4 -25 -9 -15 -6 -15 -10 -5 -24 12 -14 11
-15 -4 -2 -16 12 -22 9 -19 -12 0 -4 -4 -6 -10 -5 -6 2 -14 -3 -17 -11 -3 -9
0 -11 9 -6 8 5 11 5 7 1 -3 -4 -10 -8 -15 -8 -4 0 -16 -4 -25 -9 -10 -5 -18
-7 -18 -5 0 8 504 514 513 515 4 1 7 -3 7 -9z m-4025 -750 c10 -11 16 -20 13
-20 -3 0 -13 9 -23 20 -10 11 -16 20 -13 20 3 0 13 -9 23 -20z m100 -100 c33
-33 57 -60 54 -60 -2 0 -31 27 -64 60 -33 33 -57 60 -54 60 2 0 31 -27 64 -60z
m3707 -26 c2 -7 -1 -14 -6 -15 -5 -2 -10 6 -11 19 -2 22 10 19 17 -4z m-3552
-129 c47 -47 82 -85 80 -85 -3 0 -43 38 -90 85 -47 47 -82 85 -80 85 3 0 43
-38 90 -85z m3630 60 c13 -14 21 -25 18 -25 -2 0 -15 11 -28 25 -13 14 -21 25
-18 25 2 0 15 -11 28 -25z m723 -12 c-3 -10 -15 -30 -25 -45 -10 -15 -14 -29
-9 -32 5 -3 46 -1 92 5 101 14 292 6 369 -15 78 -21 195 -71 195 -82 0 -5 -49
-54 -109 -109 l-110 -100 180 -7 c152 -5 193 -10 269 -32 94 -28 238 -91 255
-111 10 -12 -13 -29 -142 -106 -32 -19 -58 -37 -58 -40 0 -4 42 -9 94 -13 171
-13 291 -50 409 -128 62 -41 150 -118 142 -126 -2 -3 -10 0 -17 5 -44 36 -278
80 -278 53 0 -5 19 -19 43 -31 139 -71 280 -171 365 -259 82 -85 136 -206 146
-330 5 -61 -5 -75 -32 -48 -16 16 -16 5 3 -85 34 -169 45 -258 45 -361 0 -60
-3 -106 -7 -103 -3 4 -19 35 -34 70 -20 43 -29 55 -29 38 0 -40 -8 -20 -14 39
-11 99 -17 134 -37 230 -38 184 -56 254 -82 307 -15 32 -1 41 34 21 40 -23 37
-7 -12 68 -49 76 -123 145 -219 208 -25 16 -56 36 -70 45 -14 9 -51 30 -82 46
l-58 30 -22 -23 -23 -23 43 -40 c23 -22 42 -43 42 -47 0 -4 -9 -15 -19 -24
-19 -16 -24 -13 -115 79 -67 66 -96 102 -96 119 0 14 16 39 42 63 23 23 40 42
37 44 -2 2 -40 16 -84 31 -104 35 -213 63 -299 75 -71 10 -93 21 -82 40 13 21
96 62 201 100 58 22 109 42 113 45 18 19 -105 65 -261 97 -130 26 -255 39
-384 39 -94 0 -113 3 -113 15 0 19 40 65 57 65 7 0 13 4 13 8 0 5 24 21 53 37
118 63 170 98 156 105 -20 11 -204 38 -343 51 -89 8 -146 7 -225 -2 -146 -16
-145 -16 -149 3 -2 11 20 33 69 67 69 49 71 51 40 51 -18 0 -62 -4 -99 -9
-111 -16 -192 -21 -192 -13 0 17 252 57 377 61 46 1 52 -1 46 -16z m-3976
-422 c84 -85 105 -102 117 -92 10 8 16 9 21 1 3 -6 11 -7 17 -4 6 4 8 2 4 -4
-3 -6 -15 -9 -26 -7 -29 6 -25 -4 23 -55 l42 -45 -48 45 c-107 101 -268 261
-352 350 l-90 95 95 -90 c52 -49 141 -137 197 -194z m7 61 c3 -5 -1 -9 -9 -9
-8 0 -12 4 -9 9 3 4 7 8 9 8 2 0 6 -4 9 -8z m2206 -92 c0 -5 -2 -10 -4 -10 -3
0 -8 5 -11 10 -3 6 -1 10 4 10 6 0 11 -4 11 -10z m-205 -30 c3 -6 -1 -7 -9 -4
-18 7 -21 14 -7 14 6 0 13 -4 16 -10z m-945 -495 c0 -8 9 -11 23 -9 20 4 20 4
2 -4 -23 -10 -57 -4 -49 9 9 15 -6 10 -38 -12 -50 -36 -365 -355 -372 -377 -5
-13 2 -41 18 -75 30 -63 31 -71 11 -126 -9 -27 -11 -49 -6 -64 9 -22 251 -269
271 -275 6 -2 10 3 10 12 0 15 111 187 140 216 9 9 28 32 44 52 28 37 106 103
91 77 -4 -8 -23 -33 -42 -56 -37 -47 -70 -104 -135 -233 -24 -47 -46 -86 -50
-88 -4 -2 -4 -10 -1 -18 3 -8 -1 -24 -10 -37 -25 -38 -76 -206 -102 -333 -43
-211 -50 -445 -19 -671 3 -29 4 -53 1 -53 -15 0 -49 77 -69 156 -19 79 -22
116 -22 324 -1 282 12 349 101 528 l37 73 -144 144 c-80 79 -149 156 -154 171
-6 19 -4 43 8 80 16 50 16 55 0 86 -27 51 -34 106 -18 142 8 17 90 107 183
200 146 146 174 170 207 175 49 9 84 2 84 -14z m209 -28 c12 -15 12 -17 -3
-11 -9 3 -16 13 -16 22 0 8 1 13 3 11 1 -2 9 -12 16 -22z m-69 -13 c-46 -16
-76 -17 -103 -1 -20 11 -18 12 28 17 28 3 64 3 80 1 l30 -4 -35 -13z m3810
-34 c17 -16 33 -43 36 -59 5 -22 17 -34 56 -52 57 -27 64 -35 48 -54 -17 -21
-44 -19 -92 6 l-41 21 -25 -25 -25 -25 36 -35 c21 -19 37 -38 37 -41 0 -13
-30 -38 -41 -34 -6 2 -55 48 -110 103 l-99 100 62 62 c75 75 108 82 158 33z
m-3650 -15 c7 4 26 -8 48 -29 20 -20 77 -74 126 -121 86 -81 89 -87 89 -128 0
-47 -3 -52 -118 -170 -31 -31 -60 -57 -64 -57 -5 0 -15 -10 -23 -22 -9 -13
-41 -49 -72 -81 -46 -46 -59 -55 -70 -45 -7 7 -11 20 -9 29 3 9 0 19 -5 23 -5
3 -12 -5 -14 -19 -3 -14 0 -26 8 -29 8 -3 14 -10 14 -17 0 -6 -7 -8 -16 -5
-11 4 -15 2 -11 -6 2 -7 -2 -19 -9 -26 -9 -8 -14 -9 -14 -2 0 6 -4 9 -10 5 -5
-3 -6 -13 -3 -23 5 -14 3 -15 -7 -5 -12 11 -9 28 15 104 16 50 33 93 37 95 4
3 8 19 8 35 0 20 10 39 30 59 45 44 62 50 136 50 65 0 70 2 106 37 58 57 54
79 -39 175 -43 44 -77 86 -76 95 0 8 -5 12 -12 9 -10 -3 -12 0 -8 12 3 9 2 14
-2 9 -10 -8 -65 41 -65 57 0 6 4 5 9 -3 5 -7 14 -10 21 -6z m1362 -107 c-117
-191 -232 -524 -291 -843 -51 -274 -75 -738 -41 -780 11 -13 11 -16 2 -11 -12
7 -13 -6 -7 -70 3 -44 9 -92 12 -108 4 -21 2 -26 -7 -21 -21 13 -47 86 -66
180 -9 51 -24 95 -32 101 -12 9 -12 13 -2 19 9 6 11 4 5 -5 -5 -8 -4 -11 3 -7
8 6 10 42 2 42 -8 0 -13 71 -17 245 -6 232 10 364 71 582 62 224 224 540 334
654 7 8 10 19 6 25 -4 7 -3 9 3 6 6 -4 16 0 23 8 22 26 22 16 2 -17z m2091
-58 c13 -11 28 -31 31 -45 4 -14 14 -25 23 -25 31 0 73 -51 73 -87 0 -27 -11
-44 -60 -95 -59 -60 -60 -61 -81 -42 -16 15 -18 20 -7 29 24 19 88 95 88 105
0 5 -11 17 -26 26 -25 17 -26 16 -64 -21 -33 -32 -42 -36 -55 -25 -22 18 -19
33 15 65 32 31 37 68 10 72 -8 2 -37 -17 -65 -42 -27 -25 -53 -45 -56 -45 -4
0 -13 7 -20 16 -11 14 -5 24 48 75 68 66 101 74 146 39z m-3718 -7 c36 -9 85
-53 106 -95 42 -82 5 -203 -73 -243 -79 -39 -153 -29 -217 29 -110 101 -62
283 84 316 28 7 53 5 100 -7z m3543 -184 c37 -37 39 -55 12 -109 -23 -44 -26
-86 -7 -93 6 -3 33 16 59 41 40 38 49 43 63 32 8 -7 15 -18 15 -24 0 -13 -124
-136 -136 -136 -5 0 -26 19 -47 43 -34 37 -37 46 -32 80 3 21 12 49 21 62 9
13 14 34 12 47 -5 38 -36 34 -78 -11 -43 -45 -51 -48 -71 -25 -11 14 -6 23 43
70 68 65 98 70 146 23z m-131 -220 c89 -89 100 -104 90 -120 -7 -11 -15 -19
-20 -19 -4 0 -44 36 -89 80 -46 44 -90 80 -99 80 -9 0 -22 7 -29 15 -11 13 -9
20 10 40 13 14 26 25 30 25 3 0 52 -46 107 -101z m-155 -78 c17 -2 128 -128
128 -145 0 -24 -223 -246 -247 -246 -10 0 -46 29 -81 64 -52 54 -62 69 -61 97
0 19 -2 46 -6 60 -6 23 3 36 65 102 l73 77 61 -4 c33 -3 64 -5 68 -5z m-3162
-91 c0 -5 -2 -10 -4 -10 -3 0 -8 5 -11 10 -3 6 -1 10 4 10 6 0 11 -4 11 -10z
m4487 -187 c51 -66 57 -91 63 -278 5 -177 1 -253 -21 -387 -10 -62 -13 -68
-35 -68 -13 0 -24 -2 -24 -4 0 -26 -24 -165 -32 -185 l-10 -26 -14 38 c-11 32
-10 51 6 140 21 111 40 281 40 357 0 44 -3 50 -59 103 -32 31 -57 58 -54 60 2
3 27 -20 55 -49 28 -30 53 -52 55 -50 2 2 -1 79 -7 171 -7 91 -9 173 -6 181 7
19 26 18 43 -3z m719 -8 c128 -23 168 -36 152 -50 -7 -6 -91 -58 -186 -114
-95 -57 -172 -105 -170 -106 2 -2 71 11 153 27 202 42 386 45 515 9 118 -33
118 -33 73 -66 -49 -37 -132 -126 -133 -142 0 -7 7 -13 15 -13 53 0 365 -122
365 -143 0 -5 7 -4 15 3 13 11 14 10 10 -1 -3 -9 6 -21 22 -31 32 -19 102 -84
156 -144 l37 -41 -73 26 c-39 14 -81 33 -92 42 -97 82 -108 89 -121 78 -8 -6
-11 -16 -7 -23 3 -6 2 -8 -2 -3 -5 4 -20 -3 -34 -15 -18 -16 -16 -12 7 15 35
41 40 57 17 57 -8 0 -15 4 -15 8 0 10 -53 37 -145 76 -64 26 -164 46 -236 46
-56 0 -84 18 -75 48 8 25 106 116 156 146 l35 21 -60 8 c-49 7 -433 3 -565 -6
-69 -4 -41 47 72 131 31 23 61 42 65 42 5 0 24 13 43 29 l34 28 -59 22 c-35
13 -111 28 -180 36 l-120 13 121 1 c70 1 159 -6 210 -14z m-4566 -220 c0 4 6
2 13 -4 8 -6 16 -10 18 -8 2 1 1 -2 -2 -6 -8 -10 31 -54 44 -49 4 1 6 -1 6 -5
-4 -22 2 -25 14 -8 13 17 14 17 12 -5 -1 -23 32 -68 48 -62 4 1 6 -1 6 -5 -4
-22 2 -25 14 -8 13 17 14 17 12 -5 -1 -23 32 -68 47 -63 5 2 7 0 7 -5 -4 -21
2 -24 14 -7 13 17 14 17 12 -5 -1 -23 32 -68 48 -62 4 1 6 -1 6 -5 -4 -22 2
-25 14 -8 13 17 14 17 12 -5 -1 -23 32 -68 48 -62 4 1 6 -1 6 -5 -4 -22 2 -25
15 -8 13 18 14 18 11 -7 -2 -19 3 -29 23 -37 20 -9 22 -15 13 -24 -10 -9 -19
-4 -42 23 -16 19 -34 35 -39 35 -6 0 -10 3 -11 7 0 11 -61 73 -70 73 -5 0 -9
3 -10 7 0 11 -61 73 -70 73 -5 0 -9 3 -10 7 0 11 -61 73 -70 73 -5 0 -9 3 -10
7 0 12 -61 73 -73 73 -6 1 -10 6 -8 13 1 7 -2 12 -6 12 -5 0 -24 19 -42 43
-19 23 -27 36 -17 28 9 -7 17 -10 17 -6z m2050 -58 c0 -2 -12 -14 -27 -28
l-28 -24 24 28 c23 25 31 32 31 24z m-100 -101 c0 -2 -8 -10 -17 -17 -16 -13
-17 -12 -4 4 13 16 21 21 21 13z m2076 -163 c-4 -4 149 -163 340 -354 l347
-347 221 221 c122 121 237 234 256 251 l35 30 -35 -39 c-19 -22 -38 -42 -41
-45 -3 -3 -5 -13 -3 -23 2 -14 -1 -16 -10 -7 -10 7 -17 6 -26 -5 -12 -14 -7
-19 13 -16 5 1 6 -3 2 -9 -4 -7 -11 -7 -18 -2 -15 11 -45 -19 -41 -42 2 -13
-1 -15 -10 -6 -10 7 -17 6 -26 -5 -12 -14 -7 -19 13 -16 5 1 6 -3 2 -9 -4 -7
-11 -7 -18 -2 -15 11 -45 -19 -41 -42 2 -13 -1 -15 -10 -6 -10 7 -17 6 -26 -5
-12 -14 -7 -19 13 -16 5 1 6 -3 2 -9 -4 -7 -11 -7 -18 -2 -15 11 -45 -19 -41
-42 2 -13 -1 -15 -10 -6 -10 7 -17 6 -26 -5 -12 -14 -7 -19 13 -16 5 1 6 -3 2
-9 -4 -7 -11 -7 -18 -2 -15 11 -45 -19 -41 -42 2 -13 -1 -15 -10 -6 -10 7 -17
6 -26 -5 -12 -14 -7 -19 13 -16 5 1 5 -4 2 -10 -5 -7 -11 -7 -17 -1 -7 7 -20
2 -39 -15 -29 -27 -30 -54 -1 -31 15 11 15 11 4 -4 -7 -9 -9 -18 -5 -20 4 -2
154 -152 333 -333 l325 -330 -330 325 c-181 179 -331 329 -333 333 -2 4 -11 2
-20 -5 -15 -11 -15 -11 -4 4 7 9 9 19 4 22 -11 6 -68 -54 -64 -68 2 -6 0 -7
-4 -3 -4 4 -49 -32 -98 -80 -90 -88 -90 -88 14 22 58 60 113 117 123 125 16
14 -9 41 -332 364 -307 307 -361 366 -334 366 4 0 3 -3 -1 -7z m1229 -143 c-3
-5 -12 -10 -18 -10 -7 0 -6 4 3 10 19 12 23 12 15 0z m-25 -120 c0 -5 -5 -10
-11 -10 -5 0 -7 5 -4 10 3 6 8 10 11 10 2 0 4 -4 4 -10z m-120 -24 c0 -3 -4
-8 -10 -11 -5 -3 -10 -1 -10 4 0 6 5 11 10 11 6 0 10 -2 10 -4z m-80 -80 c0
-3 -4 -8 -10 -11 -5 -3 -10 -1 -10 4 0 6 5 11 10 11 6 0 10 -2 10 -4z m-3620
-9 c0 -1 -24 -25 -52 -52 l-53 -50 50 53 c46 48 55 57 55 49z m3540 -71 c0 -3
-4 -8 -10 -11 -5 -3 -10 -1 -10 4 0 6 5 11 10 11 6 0 10 -2 10 -4z m-80 -80
c0 -3 -4 -8 -10 -11 -5 -3 -10 -1 -10 4 0 6 5 11 10 11 6 0 10 -2 10 -4z m-80
-80 c0 -3 -4 -8 -10 -11 -5 -3 -10 -1 -10 4 0 6 5 11 10 11 6 0 10 -2 10 -4z
m-4875 -252 c36 -24 43 -75 14 -116 -38 -55 -56 -68 -94 -68 -42 0 -85 36 -85
72 0 49 21 98 48 113 36 19 87 19 117 -1z m-1270 -20 c25 -26 30 -46 26 -92
-2 -26 -83 -131 -115 -149 -64 -37 -146 11 -146 86 0 47 26 105 62 138 53 50
135 58 173 17z m2052 -16 c14 -13 34 -42 44 -66 l20 -43 37 27 c20 16 31 21
25 13 -7 -9 -9 -20 -5 -24 4 -5 2 -5 -4 -2 -20 12 -48 -44 -45 -90 4 -65 -16
-145 -45 -176 -32 -35 -108 -39 -143 -6 -24 23 -25 23 -90 -35 -31 -28 -30
-26 9 21 40 49 43 58 46 120 2 38 -3 91 -11 124 -19 71 -11 112 28 145 25 21
38 25 70 21 21 -3 50 -16 64 -29z m-1623 -43 c28 -30 49 -104 40 -143 -3 -15
-17 -49 -30 -77 -67 -139 -231 -121 -225 25 3 89 47 204 80 213 9 3 38 5 64 6
39 1 52 -4 71 -24z m1239 -15 c30 -33 34 -70 13 -111 -7 -14 -23 -58 -35 -97
-25 -82 -46 -102 -108 -102 -32 0 -48 6 -69 27 -26 25 -26 30 -21 103 6 74 41
180 60 180 5 0 21 9 35 21 37 28 88 20 125 -21z m4107 -54 c0 -2 -8 -10 -17
-17 -16 -13 -17 -12 -4 4 13 16 21 21 21 13z m-6529 -233 c13 -16 12 -17 -3
-4 -10 7 -18 15 -18 17 0 8 8 3 21 -13z m70 -70 c13 -16 12 -17 -3 -4 -17 13
-22 21 -14 21 2 0 10 -8 17 -17z m69 -68 c19 -19 32 -35 29 -35 -3 0 -20 16
-39 35 -19 19 -32 35 -29 35 3 0 20 -16 39 -35z m2330 -48 c0 -2 -15 -16 -32
-33 l-33 -29 29 33 c28 30 36 37 36 29z m5170 -92 c30 -30 52 -55 49 -55 -2 0
-29 25 -59 55 -30 30 -52 55 -49 55 2 0 29 -25 59 -55z m-5280 22 c0 -2 -10
-12 -22 -23 l-23 -19 19 23 c18 21 26 27 26 19z m40 0 c0 -2 -17 -19 -37 -38
l-38 -34 34 38 c33 34 41 42 41 34z m-80 -81 c0 -2 -8 -10 -17 -17 -16 -13
-17 -12 -4 4 13 16 21 21 21 13z"/>
<path d="M4200 7875 c0 -8 5 -15 10 -15 6 0 10 7 10 15 0 8 -4 15 -10 15 -5 0
-10 -7 -10 -15z"/>
<path d="M8785 5180 c-3 -5 1 -10 10 -10 9 0 13 5 10 10 -3 6 -8 10 -10 10 -2
0 -7 -4 -10 -10z"/>
<path d="M8722 5099 c8 -23 36 -35 50 -21 14 14 11 17 -25 26 -21 5 -28 3 -25
-5z"/>
<path d="M4788 5043 c6 -2 18 -2 25 0 6 3 1 5 -13 5 -14 0 -19 -2 -12 -5z"/>
<path d="M8551 4948 l-31 -33 24 -23 c20 -20 27 -22 45 -13 11 7 28 23 37 37
16 23 15 26 -1 44 -25 28 -39 25 -74 -12z"/>
<path d="M4871 4340 c0 -29 1 -32 10 -17 7 11 7 23 0 35 -9 14 -10 11 -10 -18z"/>
<path d="M7816 4261 c-66 -66 -69 -72 -58 -96 7 -14 9 -38 6 -51 -5 -21 2 -34
42 -76 27 -27 57 -54 67 -59 26 -15 47 6 47 45 0 44 92 136 136 136 31 0 54
15 54 35 0 6 -22 36 -49 66 -41 46 -54 54 -87 56 -22 1 -50 5 -64 8 -21 5 -36
-5 -94 -64z m144 -48 c44 -57 -20 -134 -84 -101 -28 15 -36 28 -36 62 0 66 79
91 120 39z"/>
<path d="M7536 5461 c-4 -5 -2 -12 3 -15 5 -4 12 -2 15 3 4 5 2 12 -3 15 -5 4
-12 2 -15 -3z"/>
</g>
</svg>
